<svg xmlns="http://www.w3.org/2000/svg" width="155" height="20" viewBox="0 0 155 20" fill="none">
<path d="M98.6714 6.46738C96.8832 6.46738 95.9892 7.36131 95.9892 9.14989V11.0496C95.9892 12.704 96.7937 13.5084 98.4481 13.5084H104.483V15.5203H98.5596C95.1841 15.5203 93.53 13.8663 93.53 10.4908V9.82016C93.53 6.22135 95.2959 4.4555 98.8947 4.4555H99.8781C100.661 4.4555 101.89 4.47787 104.126 4.63443L103.947 6.64631C101.778 6.48975 100.549 6.46738 99.8781 6.46738H98.6714ZM38.776 8.4789C38.776 5.77403 37.4571 4.45514 34.7522 4.45514H28.717V6.35519H34.5289C35.8031 6.35519 36.429 6.98108 36.429 8.25524V13.6203H30.7512C30.0806 13.6203 29.7455 13.2848 29.7455 12.6141V11.4514C29.7455 10.7812 30.0809 10.4453 30.7512 10.4453H36.876V8.54528H30.9749C28.5831 8.54528 27.3984 9.72997 27.3984 12.1217C27.3984 14.424 28.4937 15.5196 30.7292 15.5196H35.5354C37.7035 15.5196 38.7764 14.4467 38.7764 12.2783V8.4789H38.776ZM44.2525 8.36707C44.2525 7.02582 44.9231 6.35519 46.2644 6.35519H49.8632V4.45514H46.3758C43.3806 4.45514 41.9055 5.93023 41.9055 8.92587V15.4081H44.2525V8.36707ZM54.4681 14.134C54.7361 14.9835 55.2953 15.4081 56.1892 15.4081H58.4244C59.3187 15.4081 59.8999 14.9835 60.1682 14.134L63.1635 4.45514H60.7047L57.9778 13.6199H56.6365L53.9988 4.45514H51.5403L54.4681 14.134ZM142.931 9.37283C142.931 6.06479 144.54 4.45514 147.848 4.45514H152.923V6.46702H147.625C146.127 6.46702 145.39 7.20439 145.39 8.7022V11.2729C145.39 12.7707 146.127 13.5081 147.625 13.5081H152.543V1.4375H155.002V11.9435C155.002 14.3353 153.817 15.5199 151.425 15.5199H147.849C144.541 15.5199 142.931 13.9107 142.931 10.6023V9.37283H142.931ZM133.095 15.5203C130.1 15.5203 128.625 14.0452 128.625 11.0496V4.45622H131.083V11.3847C131.083 12.8151 131.776 13.5084 133.207 13.5084H137.342V4.45622H139.801V11.9435C139.801 14.3353 138.616 15.5199 136.225 15.5199H133.095V15.5203ZM123.037 11.2732C123.037 12.7711 122.299 13.5084 120.801 13.5084H117.672C116.174 13.5084 115.436 12.7711 115.436 11.2732V8.70256C115.436 7.20475 116.174 6.46738 117.672 6.46738H120.801C122.299 6.46738 123.037 7.20475 123.037 8.70256V11.2732ZM120.577 15.5203C123.863 15.5203 125.495 13.8883 125.495 10.6026V9.37319C125.495 6.08752 123.863 4.4555 120.577 4.4555H117.895C114.609 4.4555 112.977 6.08752 112.977 9.37319V10.6026C112.977 13.8883 114.609 15.5203 117.895 15.5203H120.577ZM109.848 1.4375H107.389V15.4081H109.848V1.4375ZM85.6506 6.35519C87.081 6.35519 87.774 7.04818 87.774 8.4789V15.4081H90.121V8.92623C90.121 5.93059 88.6455 4.4555 85.6503 4.4555H82.655C80.2632 4.4555 79.0789 5.64019 79.0789 8.03194V15.4085H81.4259V6.35519H85.6506ZM75.9491 8.4789C75.9491 5.77403 74.6302 4.45514 71.9253 4.45514H65.89V6.35519H71.702C72.9762 6.35519 73.6017 6.98108 73.6017 8.25524V13.6203H67.9243C67.2537 13.6203 66.9185 13.2848 66.9185 12.6141V11.4514C66.9185 10.7812 67.2537 10.4453 67.9243 10.4453H74.0494V8.54528H68.148C65.7562 8.54528 64.5715 9.72997 64.5715 12.1217C64.5715 14.424 65.6667 15.5196 67.9019 15.5196H72.7081C74.8762 15.5196 75.9491 14.4467 75.9491 12.2783V8.4789Z" fill="black"/>
<path d="M13.7039 1.80808L13.7435 1.88816L20.4095 15.2197C20.6201 15.6565 20.7385 16.1468 20.7385 16.6648C20.7385 18.5057 19.2464 19.9978 17.4055 19.9978C16.1396 19.9978 15.039 19.2925 14.4748 18.2536L14.4676 18.2399C14.4369 18.1839 14.4091 18.1273 14.3824 18.0696L14.3817 18.0678L7.79261 4.89104L7.78937 4.88455C7.77061 4.84956 7.75221 4.81384 7.73525 4.77777L7.72876 4.76406C7.52205 4.33044 7.40625 3.84559 7.40625 3.33333C7.40625 2.05519 8.12522 0.945524 9.18042 0.386723C9.22515 0.362553 9.27024 0.339826 9.3157 0.319263L9.32039 0.316738C9.75076 0.113997 10.2316 1.32764e-07 10.7396 1.32764e-07C12.0311 -0.000360617 13.1508 0.734486 13.7039 1.80808Z" fill="#00BABA"/>
<path d="M7.40008 16.6688C7.40008 18.5096 5.90771 20.0016 4.06723 20.0016C2.22638 20.0016 0.734375 18.5096 0.734375 16.6688C0.734375 14.8279 2.22638 13.3359 4.06723 13.3359C5.90771 13.3359 7.40008 14.8283 7.40008 16.6688Z" fill="#00BABA"/>
</svg>