<svg width="44" height="44" viewBox="0 0 44 44" fill="none" xmlns="http://www.w3.org/2000/svg">
    <path d="M9.86435 27.1646L3.1943 28.3746C3.02157 28.4054 2.8438 28.3901 2.6788 28.3304C2.5138 28.2707 2.36744 28.1686 2.25436 28.0345C2.14095 27.8999 2.06509 27.7378 2.03439 27.5645C1.98854 27.3942 1.98854 27.2148 2.03439 27.0445L4.21432 21.0445C4.26343 20.8902 4.35326 20.7521 4.47433 20.6446C4.59364 20.535 4.73782 20.4561 4.89438 20.4146L16.2944 17.3546C16.4178 17.326 16.5337 17.2713 16.6344 17.1944C16.7356 17.1147 16.8205 17.0165 16.8844 16.9046L23.4343 5.56452C24.7643 3.25452 29.5944 2.33447 31.9944 2.01447C32.3925 1.96439 32.7961 2.04509 33.1444 2.24445C33.4923 2.44331 33.7635 2.75332 33.9144 3.12458C34.8444 5.36458 36.4544 10.0045 35.1244 12.3145L28.5743 23.6546C28.5136 23.7667 28.473 23.8884 28.4543 24.0145C28.4242 24.1393 28.4242 24.2697 28.4543 24.3946L31.4543 35.7945C31.4893 35.9526 31.4893 36.1164 31.4543 36.2745C31.4152 36.431 31.3437 36.5774 31.2444 36.7044L27.1444 41.5745C27.033 41.7096 26.8882 41.8131 26.7243 41.8746C26.554 41.9204 26.3746 41.9204 26.2043 41.8746C26.031 41.8439 25.8689 41.768 25.7343 41.6546C25.603 41.542 25.503 41.3972 25.4443 41.2344L23.1544 34.8546" stroke="#394460" stroke-width="3" stroke-linecap="round"/>
    <path d="M20.9644 24.0742L14.4944 35.3042" stroke="#00BABA" stroke-width="3" stroke-linecap="round"/>
</svg>
