<svg width="10" height="13" viewBox="0 0 10 13" fill="none" xmlns="http://www.w3.org/2000/svg">
<g clip-path="url(#clip0_5138_11410)">
<path d="M3.13671 3.51603C3.22999 2.93677 3.94431 2.79466 4.22479 3.29957L5.50326 5.60103C5.59145 5.75977 5.73984 5.86924 5.90951 5.90071L8.36943 6.35708C8.90907 6.4572 9.0415 7.22392 8.57107 7.52498L6.42693 8.89723C6.27904 8.99188 6.17705 9.15118 6.14772 9.33328L5.72255 11.9736C5.62928 12.553 4.91496 12.6951 4.63448 12.1901L3.356 9.88865C3.26781 9.72995 3.11943 9.62045 2.94976 9.58903L0.489857 9.13265C-0.0498152 9.03253 -0.182204 8.2658 0.288196 7.96473L2.43234 6.59245C2.58023 6.4978 2.68221 6.33852 2.71154 6.1564L3.13671 3.51603Z" fill="white"/>
<path d="M8.48554 0.623035C8.65339 0.390806 8.99982 0.508048 9.01325 0.801624L9.05754 1.77058C9.06175 1.86288 9.10332 1.9486 9.17132 2.00525L9.88539 2.59993C10.1018 2.7801 9.99254 3.15195 9.71904 3.16633L8.81632 3.21383C8.73032 3.21835 8.65047 3.26298 8.59768 3.33598L8.04368 4.10247C7.87575 4.3347 7.52932 4.21746 7.51597 3.92388L7.47168 2.95492C7.46747 2.86262 7.42589 2.77691 7.35789 2.72026L6.6438 2.12558C6.42744 1.94541 6.53667 1.57357 6.81018 1.55917L7.71289 1.51168C7.79889 1.50715 7.87875 1.46254 7.93154 1.38952L8.48554 0.623035Z" fill="white"/>
</g>
<defs>
<clipPath id="clip0_5138_11410">
<rect width="10" height="12" fill="white" transform="translate(0 0.5)"/>
</clipPath>
</defs>
</svg>
