<?xml version="1.0" encoding="UTF-8"?>
<svg id="Layer_1" data-name="Layer 1" xmlns="http://www.w3.org/2000/svg" viewBox="0 0 269.82 90.68">
  <defs>
    <style>
      .cls-1 {
        fill: #ec3139;
      }
    </style>
  </defs>
  <path class="cls-1" d="m40.51,87.92c-11.33-.72-21.44-5.46-28.47-15.81-2.69-3.95-4.12-8.4-4.62-13.14-.84-7.94,1.14-15.16,5.66-21.71,2.96-4.28,6.95-7.37,11.61-9.63,4.42-2.14,9.06-3.41,13.98-3.63,9.09-.41,16.89,2.46,23.24,9.02.62.64,1.18,1.34,1.68,2.07.41.6.74.55,1.24.13,1.16-.98,2.37-1.9,3.53-2.88.47-.39.72-.4,1.12.14,2.17,2.88,4.02,5.93,5.27,9.33,1.2,3.25,1.91,6.58,2.14,10.04.43,6.28-1.02,12.13-4.02,17.61-3.66,6.69-9.12,11.48-15.98,14.76-4.88,2.34-10.03,3.55-16.4,3.69Zm1.02-17.38c3.71.1,6.85-1.33,9.62-3.6,4.52-3.7,6.92-8.41,6.39-14.32-.27-3.08-1.35-5.94-3.08-8.53-.21-.31-.36-.39-.67-.12-1.24,1.11-2.64,2.03-3.79,3.24-.48.5-.74.47-1.19,0-2.3-2.42-5.14-3.85-8.48-4.07-5.2-.34-9.36,1.69-12.21,6.03-3.05,4.65-3.11,9.53-.17,14.2,3.09,4.91,7.81,7.09,13.56,7.18Z"/>
  <path class="cls-1" d="m115.77,54.39c-2.9,0-5.8.02-8.69-.01-.71,0-.9.23-.9.91.03,5.36,0,10.72.04,16.09,0,.6-.3.69-.75.69-1.4,0-2.8,0-4.2,0-1.38,0-2.75-.01-4.13.03-.69.02-.89-.22-.89-.92.03-5.31,0-10.63.03-15.94,0-.66-.21-.88-.87-.87-2.25.03-4.49.02-6.74,0-1.22-.01-2.05-.57-2.4-1.52-.5-1.36.29-2.71,1.75-2.99.79-.15,1.59-.1,2.38-.1,1.71,0,3.43-.02,5.14.02.59.02.74-.17.74-.73-.02-5.29-.01-10.58-.02-15.87,0-1.04-.01-1.06,1.01-1.06,2.68,0,5.36,0,8.04,0,.66,0,.91.16.9.9-.04,5.36-.02,10.72-.04,16.09,0,.47.14.65.61.65,4.3-.01,8.6,0,12.89-.04,1.3-.01,2.03-.72,2.24-2.02.06-.38.09-.76.09-1.15,0-4.28,0-8.56,0-12.84,0-1.6,0-1.6,1.65-1.6,2.49,0,4.97.03,7.46,0,.62,0,.84.18.83.82-.03,4.42.03,8.85-.03,13.27-.04,3.43-1.64,5.96-4.74,7.51-.9.45-1.88.63-2.87.64-2.85.01-5.7,0-8.55,0,0,0,0,.01,0,.02Z"/>
  <path class="cls-1" d="m246.66,51.2c3.13.05,6.13-.04,9.12.09,5.74.26,10.34,5.5,9.83,11.21-.46,5.13-4.74,9.28-9.91,9.47-5.91.21-11.83.21-17.75,0-5-.18-9.12-4.15-9.84-9.09-.82-5.62,3.94-11.35,9.78-11.6,2.97-.13,5.94-.01,8.77-.08Zm.13,16.24c.94,0,1.88.02,2.82,0,.92-.02,1.82-.15,2.68-.53,2.39-1.04,3.8-3.64,3.37-6.26-.42-2.5-2.69-4.57-5.24-4.72-2.39-.15-4.78-.09-7.16-.02-1.5.04-2.69.65-3.68,1.73-1.58,1.71-2.04,3.72-1.27,5.88.78,2.17,2.37,3.51,4.73,3.84,1.25.17,2.51.07,3.76.08Z"/>
  <path class="cls-1" d="m206.49,51.2c3.18.05,6.25-.06,9.31.11,4.56.25,8.81,4.02,9.58,8.48.97,5.58-2.85,11.01-8.48,12.04-1.07.2-2.16.24-3.24.24-4.71.02-9.42,0-14.12,0-2.4,0-4.72-.36-6.78-1.71-3.07-2.01-4.68-4.9-4.87-8.49-.27-5.31,4.39-10.29,9.73-10.58,2.99-.16,5.99-.03,8.87-.09Zm.07,4.7c-1.11,0-2.22.01-3.33,0-1.63-.03-2.91.77-3.93,1.88-1.54,1.67-1.92,3.71-1.12,5.84.78,2.1,2.34,3.43,4.6,3.69,2.57.31,5.16.24,7.74.02,2.87-.24,5.09-2.8,5.06-5.71-.04-3.02-2.31-5.47-5.25-5.7-1.25-.1-2.51-.07-3.76-.03Z"/>
  <path class="cls-1" d="m154.22,51.3c3.04,0,6.09-.06,9.13.01,4.69.12,9.12,4.51,9.65,9.14.61,5.36-3.57,11.37-10.26,11.54-5.77.14-11.54.18-17.31-.02-4.67-.16-8.72-3.55-9.73-8-1.04-4.61,1.13-9.24,5.33-11.51,1.78-.96,3.68-1.25,5.66-1.25,2.51,0,5.02,0,7.54,0v.09Zm-.06,4.62s0,0,0,.01c-1.25,0-2.51-.06-3.76.01-2.82.17-5.02,2.63-5.09,5.59-.06,2.81,2.16,5.49,4.86,5.78,2.6.28,5.21.26,7.81.02,2.98-.27,5.2-2.9,5.12-5.9-.07-2.83-2.45-5.32-5.32-5.5-1.2-.07-2.41-.01-3.62-.01Z"/>
  <path class="cls-1" d="m61.42,5.86c4.01,0,8.02,0,12.03,0,.22,0,.44,0,.65,0,.6.04.67.21.32.71-.22.32-.47.61-.68.93-1.71,2.59-3.41,5.19-5.12,7.79-1.91,2.91-4.71,4.37-8.11,4.4-8.19.08-16.38.02-24.56.02-.21,0-.46.08-.61-.13-.16-.23.03-.41.16-.58,1.98-2.7,3.67-5.6,5.53-8.38,2.1-3.14,4.98-4.79,8.81-4.77,3.86.02,7.73,0,11.59,0Z"/>
  <path class="cls-1" d="m185.43,52.19c0,6.32,0,12.65.01,18.97,0,.67-.16.93-.89.92-2.63-.03-5.26,0-7.9.02-1.2,0-1.17,0-1.17-1.18.01-7.86.01-15.72.02-23.59,0-4.74,0-9.47,0-14.21,0-.99.01-1,1.01-1,2.63,0,5.26,0,7.9.02,1.01,0,1.01.02,1.02,1.01,0,6.35,0,12.7,0,19.04h0Z"/>
  <path class="cls-1" d="m122.01,64.17c0-2.4.04-4.81-.02-7.21-.02-.76.34-.83.89-.83,2.12,0,4.25.01,6.37.02.7,0,1.4.04,2.1.02.43,0,.6.14.6.58,0,4.9,0,9.81,0,14.71,0,.42-.15.62-.59.62-2.92,0-5.84,0-8.76.01-.45,0-.63-.16-.63-.64.02-2.43.01-4.85.01-7.28,0,0,.01,0,.02,0Z"/>
</svg>