<?xml version="1.0" encoding="UTF-8"?>
<svg id="Layer_1" data-name="Layer 1" xmlns="http://www.w3.org/2000/svg" viewBox="0 0 170.08 133.46">
  <defs>
    <style>
      .cls-1 {
        fill: #0f779f;
      }
    </style>
  </defs>
  <path class="cls-1" d="m87.56,6.59c-.94.3-1.91.2-2.87.19-1.41-.02-2.83.17-4.22-.19h7.09Z"/>
  <path class="cls-1" d="m84.17,7.28c1.64,0,3.28-.1,4.9.02,6.66.5,12.85,2.57,18.57,5.97,11.49,6.82,18.89,16.75,22.28,29.63,1.48,5.61,1.7,11.35.92,17.09-1.55,11.33-6.64,20.86-15.03,28.6-6.37,5.87-13.86,9.62-22.35,11.41-18.14,3.84-36.88-3.75-47.6-18.38-4.75-6.48-7.77-13.72-8.75-21.69-1.67-13.64,2.01-25.79,10.88-36.3,6.82-8.08,15.51-13.17,25.79-15.6,3.42-.81,6.91-.73,10.39-.74Zm-.38,1.81c-23.48-.1-44.97,18.54-44.87,45.15.1,25.77,21.42,45.24,46.49,44.56,23.48-.64,44.08-19.93,43.63-45.87-.42-24.51-20.77-44.11-45.25-43.84Z"/>
  <g>
    <path class="cls-1" d="m2.86,108.36c1.73-.41,3.48-.19,5.22-.19,1.36,0,2.72.1,4.08-.02.31-.03.63,0,.95.05.19.02.33.14.33.36,0,.23-.07.41-.31.45-.29.05-.58.08-.88.1-1.34.07-1.98.86-1.71,2.16.43,2.07,1.27,4,1.88,6.02.4,1.34.86,2.67,1.3,4,.08.23.14.55.43.55.33,0,.25-.37.32-.59.74-2.59,1.69-5.11,2.52-7.66.53-1.61,1.07-3.22,1.6-4.82.11-.33.24-.64.68-.65.39,0,.49.26.59.55,1.36,4.15,2.72,8.29,4.08,12.44.08.26.14.52.21.78.37-.03.47-.31.54-.56.94-3.31,2.34-6.46,3.2-9.79.43-1.66,0-2.24-1.7-2.45-.2-.02-.4-.08-.6-.09-.29-.02-.47-.13-.46-.46.01-.38.25-.42.55-.42,1.16,0,2.32-.04,3.47.03,1.36.08,2.72,0,4.08-.03.32,0,.68-.04.73.4.05.5-.37.57-.68.55-2.07-.1-3.12,1.15-3.74,2.86-1.18,3.27-2.29,6.57-3.41,9.87-.75,2.2-1.47,4.42-2.19,6.63-.09.27-.17.57-.48.59-.33.02-.42-.3-.5-.56-1.43-4.26-2.9-8.52-4.16-12.84-.03-.11-.06-.22-.1-.32-.06-.2-.13-.42-.37-.43-.29-.02-.28.27-.34.44-.84,2.49-1.66,4.97-2.49,7.46-.63,1.91-1.27,3.82-1.89,5.73-.09.27-.16.57-.49.55-.32-.01-.42-.32-.51-.57-.61-1.85-1.2-3.7-1.81-5.54-1.23-3.71-2.35-7.46-3.68-11.13-.56-1.56-1.51-2.67-3.3-2.81-.33-.03-.65-.17-.97-.27,0-.14,0-.27,0-.41Z"/>
    <path class="cls-1" d="m70.74,128.33c-2.41,0-4.81-.01-7.22,0-.48,0-.8-.15-1.1-.52-1.44-1.83-2.91-3.65-4.36-5.48-.14-.18-.26-.38-.48-.47-.39-.16-.73-.07-.73.38,0,1.22-.05,2.44.18,3.65.18.94.72,1.48,1.69,1.56.25.02.49.09.74.12.22.03.43.07.41.34-.01.25-.22.32-.43.35-.14.01-.27.01-.41.02-2.57,0-5.13,0-7.7,0-.11,0-.23,0-.34-.01-.24-.02-.38-.14-.39-.38-.01-.23.14-.31.34-.35.16-.03.31-.08.46-.1,1.52-.21,2.16-.81,2.19-2.34.05-3.04.05-6.07,0-9.11-.03-1.5-.68-2.09-2.27-2.36-.3-.05-.77.07-.7-.49.07-.49.49-.39.81-.39,2.43,0,4.86-.05,7.29,0,1.36.03,2.71.24,3.95.87,1.3.67,2.25,1.65,2.42,3.15.19,1.66-.55,2.94-1.89,3.89-.52.37-1.1.63-1.7.83-.61.21-.65.39-.2.82,1.23,1.2,2.29,2.58,3.65,3.66,1.11.87,2.33,1.48,3.79,1.46,1.58-.02,2.41-.7,2.44-2.28.06-3.08.06-6.16,0-9.24-.03-1.45-.74-2.06-2.35-2.3-.28-.04-.64.04-.62-.43.02-.48.38-.43.7-.43,2.59,0,5.18-.08,7.76.02,2.18.08,4.3.42,6.24,1.6,4.28,2.61,4.16,9.08.59,11.93-1.66,1.33-3.56,1.88-5.6,1.96-2.38.09-4.77.02-7.15.02,0,0,0,.01,0,.02Zm3.66-8.42h.03c0,1.27,0,2.54,0,3.8,0,.66-.04,1.31.07,1.96.1.59.36.98.99,1.13.63.15,1.26.11,1.89.09,2.39-.09,4.18-1.53,4.81-3.81.41-1.49.46-2.99.15-4.5-.45-2.21-1.67-3.72-3.95-4.25-1.05-.24-2.12-.16-3.18-.19-.58-.02-.81.19-.8.79.03,1.65,0,3.31,0,4.96Zm-17.48-2.28c-.03.59-.03,1.32-.1,2.04-.05.53.15.73.66.79.55.06,1.08-.03,1.63-.07,1.61-.13,2.66-1.24,2.79-2.96.11-1.45-.92-2.8-2.36-3.15-.72-.17-1.44-.1-2.17-.1-.39,0-.58.19-.52.61.14.9.02,1.81.07,2.84Z"/>
    <path class="cls-1" d="m127.32,128.34c-3.02,0-6.04,0-9.06,0-.46,0-.7-.23-.95-.54-1.43-1.79-2.86-3.57-4.3-5.35-.3-.37-.64-.89-1.13-.69-.42.17-.23.76-.21,1.18.05.93-.02,1.86.18,2.77.26,1.16.6,1.51,1.78,1.73.16.03.31.08.47.1.3.03.66.04.62.45-.03.36-.38.33-.65.33-2.7.05-5.4.07-8.1.01-.33,0-.59-.06-.61-.47-.02-.42.31-.3.52-.34.24-.05.49-.07.74-.1.97-.13,1.65-.76,1.71-1.73.2-3.39.23-6.79-.01-10.18-.08-1.11-.59-1.6-1.7-1.8-.27-.05-.54-.05-.81-.08-.26-.02-.43-.14-.44-.42-.02-.29.15-.41.41-.44.16-.02.32-.02.48-.02,2.47,0,4.95-.05,7.42,0,1.34.02,2.66.26,3.88.87,1.58.79,2.49,2.05,2.4,3.85-.09,1.86-1.24,3-2.84,3.74-.35.16-.73.24-1.09.38-.33.13-.51.29-.17.63,1.02,1.03,2.01,2.09,3.04,3.11.93.92,1.96,1.69,3.27,1.99,1.64.38,3.04-.1,3.11-2.11.1-3.19.17-6.39-.07-9.57-.1-1.32-.68-1.83-1.99-1.96-.2-.02-.41-.03-.61-.03-.29,0-.39-.15-.39-.43,0-.26.08-.44.38-.45.43-.01.86-.03,1.29-.03,3.79,0,7.58,0,11.38-.02.61,0,.84.17.86.8.03,1.04.17,2.08.24,3.11.02.22.14.53-.26.58-.36.04-.48-.19-.52-.49-.25-1.67-1.33-2.34-2.92-2.47-1.2-.1-2.41-.03-3.61-.07-.34-.01-.48.13-.47.49,0,1.4.05,2.81-.06,4.21-.03.43.13.62.6.55.65-.09,1.31-.1,1.96-.18.95-.11,1.33-.55,1.38-1.52.01-.2.02-.41.03-.61.02-.32.16-.51.51-.49.36.02.37.27.37.53,0,1.7,0,3.4,0,5.1,0,.32,0,.63,0,.95,0,.25-.1.45-.39.47-.29.01-.39-.18-.43-.43-.02-.16-.05-.31-.06-.47-.14-1.26-.46-1.61-1.7-1.78-.52-.07-1.04-.08-1.56-.16-.5-.07-.72.08-.68.61.1,1.28-.09,2.58.18,3.86.23,1.08.7,1.51,1.82,1.56,1.22.06,2.45.06,3.67-.1,1.26-.16,1.87-.69,2.17-1.89.1-.39.14-.99.6-.92.48.07.22.64.2,1-.04.9-.12,1.81-.12,2.71,0,.53-.19.7-.72.69-3.02-.02-6.04-.01-9.06-.01,0,0,0-.01,0-.02Zm-15.62-11.14s0,0,0,0c0,.59.02,1.18,0,1.76-.07,1.63-.3,1.49,1.43,1.45.76-.02,1.55.02,2.24-.41,1.18-.73,1.63-2.14,1.18-3.79-.29-1.05-.99-1.68-2.06-1.92-.78-.17-1.58-.09-2.37-.12-.36-.01-.44.16-.43.51.03.84,0,1.67,0,2.51Z"/>
    <path class="cls-1" d="m92.45,108.12c2.41.07,4.65-.22,6.84.28,2.2.5,4.05,1.54,4.77,3.86.78,2.52-.33,5.03-2.7,6.32-1.49.81-3.11,1.09-4.79,1.09-.66,0-1.32,0-1.97.02-.3,0-.52.06-.51.45.06,1.6-.06,3.21.18,4.81.25,1.68.92,2.33,2.62,2.47.11,0,.23.01.34.03.26.04.58.02.59.41,0,.43-.32.44-.62.44-2.27.02-4.54.05-6.81.06-.84,0-1.68-.01-2.52-.03-.36,0-.82.06-.82-.46,0-.48.44-.41.77-.45.34-.04.68-.07,1.01-.14.95-.21,1.47-.85,1.66-1.77.17-.84.28-1.7.28-2.56,0-3.24,0-6.48,0-9.72,0-.82-.11-1.63-.3-2.42-.28-1.16-1.14-1.62-2.24-1.74-.23-.02-.45-.05-.68-.05-.29,0-.49-.14-.5-.44-.01-.32.23-.43.49-.44.73-.02,1.45-.02,2.18-.02.98,0,1.95,0,2.73,0Zm1.64,5.69s-.02,0-.04,0c0,1.18.02,2.35,0,3.53-.01.5.15.7.66.67.79-.05,1.59-.05,2.38-.08,1.86-.07,3.12-1.13,3.46-2.94.12-.62.09-1.27.02-1.9-.21-1.75-1.3-3.06-2.81-3.22-1.08-.11-2.17-.04-3.26-.04-.37,0-.43.18-.42.52.03,1.15.01,2.31.01,3.46Z"/>
    <path class="cls-1" d="m41.15,128.89c-5.26,0-8.99-2.71-9.92-6.77-.73-3.18.48-5.75,2.95-7.72,4.65-3.71,10.92-2.41,13.99,1.64,2.24,2.94,2.03,6.79-.52,9.65-1.94,2.17-4.41,3.16-6.51,3.21Zm5.1-8.38c0-1.36-.29-2.67-.94-3.89-1.85-3.48-6.37-4.07-9.05-1.18-1.89,2.04-2.55,6.45-.55,9.52,2.05,3.14,6.7,3.43,9.02.48,1.12-1.42,1.49-3.12,1.52-4.92Z"/>
    <path class="cls-1" d="m140.26,125.66c0-.84,0-1.68,0-2.51,0-.31-.02-.61.41-.62.38-.02.58.15.65.53.15.78.39,1.53.85,2.2,1.13,1.66,3.45,2.55,5.39,2.06,1.8-.46,2.31-2.29,1.03-3.62-1.05-1.09-2.42-1.66-3.75-2.29-.76-.36-1.52-.7-2.23-1.15-.82-.53-1.45-1.22-1.9-2.09-1.05-2.08,0-4.09,1.58-5.05,2.03-1.22,4.12-1.28,6.17-.02.51.32.77.24.96-.29.06-.17.15-.33.27-.47.16-.2.4-.19.63-.12.21.07.24.24.24.43,0,1.54,0,3.08,0,4.62,0,.3-.11.44-.44.47-.42.03-.65-.13-.71-.53-.13-.88-.49-1.64-1.06-2.31-.97-1.12-2.91-1.55-4.24-.93-1.41.66-1.62,2.1-.45,3.12.78.68,1.72,1.09,2.63,1.54.94.45,1.89.88,2.82,1.36,1.32.68,2.34,1.68,2.67,3.17.4,1.84-.32,3.35-1.74,4.5-1.94,1.57-4.85,1.71-7.1.39-.21-.13-.43-.26-.63-.4-.34-.23-.57-.2-.74.21-.12.29-.27.57-.43.85-.12.21-.29.37-.55.29-.25-.08-.33-.28-.33-.54,0-.93,0-1.86,0-2.79h0Z"/>
    <path class="cls-1" d="m154.83,125.71c0-.86,0-1.72,0-2.58,0-.29.01-.55.4-.58.36-.03.47.19.54.49.32,1.35.86,2.58,2.05,3.42,1.29.91,2.73,1.22,4.27.84,1.69-.42,2.2-2.1,1.1-3.44-.73-.88-1.7-1.42-2.7-1.91-.94-.45-1.89-.87-2.82-1.35-.9-.46-1.64-1.14-2.18-2-1.16-1.84-.72-4.14,1.09-5.34,2-1.32,4.1-1.47,6.22-.24.75.44.76.45,1.21-.35.16-.28.34-.52.68-.44.34.08.32.41.32.67,0,1.38,0,2.76-.01,4.15,0,.27.05.64-.38.68-.4.04-.56-.21-.65-.56-.06-.24-.15-.47-.23-.71-.64-1.95-2.19-2.96-4.23-2.78-.64.06-1.18.33-1.63.77-.71.69-.67,1.72.08,2.48.87.87,2.04,1.25,3.1,1.8,1.07.55,2.2.98,3.18,1.68,1.41,1,2.37,2.34,2.11,4.14-.27,1.87-1.37,3.25-3.17,3.93-2.08.79-4.09.58-5.99-.59-.85-.52-.85-.51-1.27.39-.07.14-.14.29-.23.41-.14.18-.32.36-.57.28-.23-.08-.24-.31-.25-.51,0-.91,0-1.81,0-2.72,0,0-.01,0-.02,0Z"/>
  </g>
  <path class="cls-1" d="m111.21,24.07c-.69.06-1.17.08-1.64.15-3.38.52-5.25,3.79-5.49,6.4-.18,1.97.37,3.76,1.23,5.49.87,1.76,1.95,3.41,2.94,5.1,2.39,4.08,3.61,8.42,2.92,13.18-.33,2.28-1.09,4.45-1.75,6.64-1.7,5.62-3.41,11.23-5.12,16.85-.34-.11-.32-.45-.41-.72-4.4-13.03-8.8-26.06-13.21-39.09-.24-.71-.5-1.42-.76-2.13-.33-.9-.27-.97.66-1.04,1.21-.09,2.42-.17,3.61-.34,1.04-.15,1.52-.81,1.43-1.74-.08-.92-.68-1.46-1.77-1.41-3.84.18-7.68.41-11.53.37-2.85-.04-5.69-.12-8.53-.33-.54-.04-1.09-.08-1.63-.02-.92.09-1.35.59-1.39,1.49-.03.88.37,1.49,1.24,1.62,1.16.18,2.34.3,3.52.39.75.06,1.13.36,1.38,1.13,1.72,5.22,3.69,10.35,5.62,15.48.21.56.21,1.01.02,1.55-2.74,7.64-5.25,15.35-7.81,23.06-.24.74-.35,1.52-.76,2.21-.29-.04-.29-.29-.35-.47-3.11-9.78-6.51-19.46-9.78-29.18-1.45-4.32-2.94-8.62-4.42-12.93-.21-.6-.15-.87.59-.89,1.21-.03,2.42-.11,3.62-.27,1.18-.15,1.69-.78,1.6-1.79-.08-.9-.77-1.47-1.87-1.43-2.45.09-4.9.25-7.35.33-1.69.05-3.39.02-5.09,0-.19,0-.45.11-.57-.14-.1-.23.1-.39.22-.56,6.9-9.36,15.98-15.28,27.57-17.01,8.6-1.29,16.83.06,24.56,4.09,3.01,1.57,5.75,3.56,8.5,5.93Z"/>
  <path class="cls-1" d="m84.83,57.61c.5,1.49.93,2.92,1.45,4.33,2.59,7.05,5.21,14.1,7.8,21.15,1.01,2.75,1.92,5.53,3.04,8.24.21.5.11.76-.51.95-5.51,1.67-11.11,2.36-16.86,1.74-2.11-.23-4.18-.67-6.25-1.09-.91-.18-.96-.36-.62-1.35,2.63-7.52,5.28-15.03,7.89-22.56,1.16-3.33,2.24-6.7,3.35-10.05.15-.45.27-.92.72-1.37Z"/>
  <path class="cls-1" d="m66.18,90.15c-4.21-2.16-7.88-4.73-11.05-7.98-6.67-6.83-10.42-15.03-11.49-24.46-.76-6.69.52-13.1,2.92-19.33.08-.2.12-.55.42-.5.27.04.27.37.35.58,2.56,7.03,5.09,14.07,7.66,21.1,3.67,10.03,7.38,20.05,11.07,30.07.04.11.05.22.11.52Z"/>
  <path class="cls-1" d="m119.83,35.05c5.1,10.05,6.22,20.41,2.74,31.13-3.15,9.7-9.3,17.11-17.95,22.55-.2-.41-.04-.65.05-.9,3.92-10.8,7.63-21.68,11.4-32.53,1.21-3.47,2.54-6.9,3.2-10.55.55-3.06.64-6.12.36-9.2-.01-.14-.07-.29.19-.5Z"/>
</svg>