<svg id="Layer_1" data-name="Layer 1" xmlns="http://www.w3.org/2000/svg" viewBox="0 0 804 804"><defs><style>.cls-1{fill:#f26722;stroke:#231f20;stroke-miterlimit:10;stroke-width:4px;}</style></defs><path class="cls-1" d="M795.35,530.83v22c0,40.18-26,74.1-61.32,84.38a13.09,13.09,0,0,1-12.81,12.65h-1.83v30.74c4.4.69,8.38,2.43,10.8,6.57,4.73,8.07,5.07,13.13,4.52,21.49-1.2,18.39-2.32,25-7.66,37-3.24,7.32-5.77,11.49-13.24,19-21.26,21.3-57.54,36.17-93.39,37.28-32.4,1-63.43-10.18-93-26.58s-58.35-43.28-86.24-80.61-52.22-82.17-73-134.5Q352.73,520.92,322.7,416q-18-64-22.53-76.58l-12.34-1.05A114.34,114.34,0,0,0,275,339.42L207.59,618q24,3.67,38.51,3.67,22,0,54.54-7.87l-5,25.71q-33.58,7.31-52.11,7.34-19.51,0-57.62-3.67-33.56-3.71-55.62-3.67-40.06,0-92.67,12.06l7.51-29.39q55.12-14.64,71.67-28.85,25.08-22.51,38.61-79.18l70.11-293.24q13-56.09,13-66.08c0-6.3-2.11-11-6.26-14.17s-12.45-4.52-24.79-4.18L214,111.25q50.46-.51,120.91-19.38-6,19.95-15.56,58.75L281.7,305.32q24.09,5.26,40.66,5.25,62.75,0,107.39-45.9t44.68-108.84q0-48.78-35.81-80.26T341.19,44.1q-78.65,0-153.8,39.88T74.69,182.86c-25,39.33-37.35,80.51-37.58,123.51-.21,40.45,1.25,44.73,19.75,91.81,18.42,33.08,14.89,28.2,18.42,33.08C80.13,438,85.62,451,81.41,457.32c-5.24,7.9-16.09,13.19-26.45,10.11-17.45-5.17-18.91-12-31.4-40.95C10,395.17,2,362.49,2,320.54Q2,239.75,44.64,170T173.76,54.6Q260.31,9,356.07,9,445.34,9,503,44.1T560.69,148q0,64.5-52.85,120.12t-145.5,71.33q23,48.27,29.54,65,10.53,28.32,32.06,95.47,50.63,157.26,104.75,221.54,40.09,47,86.75,47,48,0,61.64-45.36c5.32-19.12,3.73-29.13,7.47-35.48,3.3-5.59,8.05-7,13.2-7.36V649.88H695.9a13.07,13.07,0,0,1-12.79-12.65c-35.33-10.28-67-44.2-67-84.38v-22h14v22c0,32.76,26.37,60.52,54.84,69.72a12.71,12.71,0,0,1,11-6.49h25.32a12.73,12.73,0,0,1,11,6.49c28.45-9.2,49.17-37,49.17-69.72v-22Z"/><path class="cls-1" d="M687.41,594.68h37.53c21.72,0,39.33-18.41,39.33-41.13V521.63h-19a4.87,4.87,0,0,1,0-9.73h19V496.83h-19a4.87,4.87,0,0,1,0-9.73h19V472h-19a4.87,4.87,0,0,1,0-9.73h19V447.23h-19a4.87,4.87,0,0,1,0-9.73h19v-2.35c0-22.72-17.61-41.13-39.33-41.13H687.41c-21.72,0-39.32,18.41-39.32,41.13v2.35h19a4.87,4.87,0,0,1,0,9.73h-19V462.3h19a4.87,4.87,0,0,1,0,9.73h-19V487.1h19a4.87,4.87,0,0,1,0,9.73h-19V511.9h19a4.87,4.87,0,0,1,0,9.73h-19v31.92C648.09,576.27,665.69,594.68,687.41,594.68Z"/><path class="cls-1" d="M795.35,529.44v22c0,40.18-26,74.1-61.32,84.38a13.09,13.09,0,0,1-12.81,12.65h-1.83v30.74c4.4.69,8.38,2.43,10.8,6.57,4.73,8.07,5.07,13.12,4.52,21.49-1.2,18.39-2.32,25-7.66,37-3.24,7.32-5.77,11.48-13.24,19-21.26,21.3-57.54,36.17-93.39,37.28-32.4,1-63.43-10.18-93-26.58s-58.35-43.28-86.24-80.61-52.22-82.17-73-134.5q-15.51-39.33-45.54-144.25-18-64-22.53-76.58l-12.34-1A114.34,114.34,0,0,0,275,338L207.59,616.56q24,3.68,38.51,3.67,22,0,54.54-7.87l-5,25.71q-33.58,7.3-52.11,7.34-19.51,0-57.62-3.67-33.56-3.71-55.62-3.67-40.06,0-92.67,12l7.51-29.38q55.12-14.65,71.67-28.85,25.08-22.51,38.61-79.18l70.11-293.24q13-56.08,13-66.08c0-6.3-2.11-11-6.26-14.17S219.84,134.7,207.5,135L214,109.86q50.46-.51,120.91-19.38-6,20-15.56,58.75L281.7,303.93q24.09,5.26,40.66,5.25,62.75,0,107.39-45.9t44.68-108.85q0-48.78-35.81-80.25T341.19,42.71q-78.65,0-153.8,39.88T74.69,181.47C49.64,220.8,37.34,262,37.11,305c-.21,40.45,1.25,44.73,19.75,91.81,18.42,33.08,14.89,28.2,18.42,33.08,4.85,6.74,10.34,19.77,6.13,26.06C76.17,463.83,65.32,469.12,55,466c-17.45-5.17-18.91-12-31.4-41C10,393.77,2,361.1,2,319.14Q2,238.37,44.64,168.6T173.76,53.2Q260.31,7.57,356.07,7.56q89.26,0,146.94,35.15t57.68,103.87q0,64.5-52.85,120.12T362.34,338q23,48.27,29.54,65,10.53,28.32,32.06,95.47Q474.57,655.8,528.69,720.08q40.09,47,86.75,47,48,0,61.64-45.36c5.32-19.13,3.73-29.13,7.47-35.48,3.3-5.59,8.05-7,13.2-7.36V648.49H695.9a13.07,13.07,0,0,1-12.79-12.65c-35.33-10.28-67-44.2-67-84.38v-22h14v22c0,32.76,26.37,60.52,54.84,69.72a12.72,12.72,0,0,1,11-6.5h25.32a12.74,12.74,0,0,1,11,6.5c28.45-9.2,49.17-37,49.17-69.72v-22Z"/><path class="cls-1" d="M687.41,593.29h37.53c21.72,0,39.33-18.41,39.33-41.13V520.24h-19a4.87,4.87,0,0,1,0-9.73h19V495.44h-19a4.87,4.87,0,0,1,0-9.73h19V470.64h-19a4.87,4.87,0,0,1,0-9.73h19V445.84h-19a4.87,4.87,0,0,1,0-9.73h19v-2.36c0-22.71-17.61-41.13-39.33-41.13H687.41c-21.72,0-39.32,18.42-39.32,41.13v2.36h19a4.87,4.87,0,0,1,0,9.73h-19v15.07h19a4.87,4.87,0,0,1,0,9.73h-19v15.07h19a4.87,4.87,0,0,1,0,9.73h-19v15.07h19a4.87,4.87,0,0,1,0,9.73h-19v31.92C648.09,574.88,665.69,593.29,687.41,593.29Z"/><path class="cls-1" d="M795.35,528.05v22c0,40.18-26,74.1-61.32,84.38a13.09,13.09,0,0,1-12.81,12.65h-1.83v30.74c4.4.69,8.38,2.43,10.8,6.57,4.73,8.07,5.07,13.12,4.52,21.49-1.2,18.39-2.32,25-7.66,37-3.24,7.32-5.77,11.48-13.24,19-21.26,21.29-57.54,36.17-93.39,37.28-32.4,1-63.43-10.18-93-26.58S469.09,729.3,441.2,692s-52.22-82.17-73-134.5q-15.51-39.35-45.54-144.25-18-64-22.53-76.58l-12.34-1.05A114.34,114.34,0,0,0,275,336.64L207.59,615.17q24,3.68,38.51,3.67,22,0,54.54-7.87l-5,25.71Q262.06,644,243.53,644q-19.51,0-57.62-3.67-33.56-3.71-55.62-3.67-40.06,0-92.67,12.05l7.51-29.38q55.12-14.65,71.67-28.85,25.08-22.51,38.61-79.19l70.11-293.23q13-56.09,13-66.08c0-6.3-2.11-11-6.26-14.17s-12.45-4.52-24.79-4.18L214,108.47q50.46-.51,120.91-19.38-6,19.95-15.56,58.74L281.7,302.54q24.09,5.26,40.66,5.25,62.75,0,107.39-45.9T474.43,153q0-48.78-35.81-80.25T341.19,41.32q-78.65,0-153.8,39.88T74.69,180.08c-25,39.33-37.35,80.51-37.58,123.51C36.9,344,38.36,348.32,56.86,395.4c18.42,33.08,14.89,28.2,18.42,33.08,4.85,6.74,10.34,19.77,6.13,26.06-5.24,7.9-16.09,13.18-26.45,10.11-17.45-5.17-18.91-12-31.4-40.95C10,392.38,2,359.71,2,317.75Q2,237,44.64,167.21T173.76,51.81Q260.31,6.18,356.07,6.17q89.26,0,146.94,35.15t57.68,103.87q0,64.5-52.85,120.11t-145.5,71.34q23,48.27,29.54,65,10.53,28.32,32.06,95.47,50.63,157.26,104.75,221.54,40.09,47,86.75,47,48,0,61.64-45.37c5.32-19.12,3.73-29.12,7.47-35.47,3.3-5.59,8.05-7,13.2-7.37V647.1H695.9a13.07,13.07,0,0,1-12.79-12.65c-35.33-10.28-67-44.2-67-84.38v-22h14v22c0,32.76,26.37,60.52,54.84,69.72a12.72,12.72,0,0,1,11-6.5h25.32a12.74,12.74,0,0,1,11,6.5c28.45-9.2,49.17-37,49.17-69.72v-22Z"/><path class="cls-1" d="M687.41,591.9h37.53c21.72,0,39.33-18.41,39.33-41.13V518.85h-19a4.87,4.87,0,0,1,0-9.73h19V494.05h-19a4.87,4.87,0,0,1,0-9.73h19V469.25h-19a4.87,4.87,0,0,1,0-9.73h19V444.45h-19a4.87,4.87,0,0,1,0-9.73h19v-2.36c0-22.71-17.61-41.13-39.33-41.13H687.41c-21.72,0-39.32,18.42-39.32,41.13v2.36h19a4.87,4.87,0,0,1,0,9.73h-19v15.07h19a4.87,4.87,0,0,1,0,9.73h-19v15.07h19a4.87,4.87,0,0,1,0,9.73h-19v15.07h19a4.87,4.87,0,0,1,0,9.73h-19v31.92C648.09,573.49,665.69,591.9,687.41,591.9Z"/><path class="cls-1" d="M795.35,526.66v22c0,40.18-26,74.1-61.32,84.38a13.09,13.09,0,0,1-12.81,12.65h-1.83v30.74c4.4.69,8.38,2.43,10.8,6.57,4.73,8.07,5.07,13.12,4.52,21.49-1.2,18.39-2.32,25-7.66,37-3.24,7.32-5.77,11.48-13.24,19-21.26,21.29-57.54,36.17-93.39,37.28-32.4,1-63.43-10.18-93-26.58s-58.35-43.28-86.24-80.61-52.22-82.17-73-134.5q-15.51-39.35-45.54-144.25-18-64-22.53-76.58l-12.34-1.05A114.34,114.34,0,0,0,275,335.25L207.59,613.78q24,3.66,38.51,3.67,22,0,54.54-7.88l-5,25.72q-33.58,7.31-52.11,7.34-19.51,0-57.62-3.67-33.56-3.71-55.62-3.67-40.06,0-92.67,12.05L45.13,618q55.12-14.65,71.67-28.85,25.08-22.51,38.61-79.19l70.11-293.23q13-56.08,13-66.08c0-6.3-2.11-11-6.26-14.17s-12.45-4.52-24.79-4.18L214,107.08q50.46-.51,120.91-19.38-6,20-15.56,58.74L281.7,301.15q24.09,5.27,40.66,5.25,62.75,0,107.39-45.9t44.68-108.85q0-48.78-35.81-80.25T341.19,39.93q-78.65,0-153.8,39.88T74.69,178.69C49.64,218,37.34,259.2,37.11,302.2c-.21,40.45,1.25,44.73,19.75,91.81,18.42,33.07,14.89,28.2,18.42,33.07,4.85,6.75,10.34,19.78,6.13,26.07-5.24,7.9-16.09,13.18-26.45,10.11-17.45-5.17-18.91-12-31.4-40.95C10,391,2,358.32,2,316.36q0-80.78,42.64-150.54T173.76,50.42Q260.31,4.79,356.07,4.78q89.26,0,146.94,35.15T560.69,143.8q0,64.5-52.85,120.11t-145.5,71.34q23,48.27,29.54,65,10.53,28.32,32.06,95.47Q474.57,653,528.69,717.3q40.09,47,86.75,47,48,0,61.64-45.37c5.32-19.12,3.73-29.12,7.47-35.48,3.3-5.58,8.05-7,13.2-7.36v-30.4H695.9a13.07,13.07,0,0,1-12.79-12.65c-35.33-10.28-67-44.2-67-84.38v-22h14v22c0,32.76,26.37,60.52,54.84,69.72a12.72,12.72,0,0,1,11-6.5h25.32a12.74,12.74,0,0,1,11,6.5c28.45-9.2,49.17-37,49.17-69.72v-22Z"/><path class="cls-1" d="M687.41,590.51h37.53c21.72,0,39.33-18.41,39.33-41.13V517.46h-19a4.87,4.87,0,0,1,0-9.73h19V492.66h-19a4.87,4.87,0,0,1,0-9.73h19V467.86h-19a4.87,4.87,0,0,1,0-9.73h19V443.06h-19a4.87,4.87,0,0,1,0-9.73h19V431c0-22.71-17.61-41.13-39.33-41.13H687.41c-21.72,0-39.32,18.42-39.32,41.13v2.36h19a4.87,4.87,0,0,1,0,9.73h-19v15.07h19a4.87,4.87,0,0,1,0,9.73h-19v15.07h19a4.87,4.87,0,0,1,0,9.73h-19v15.07h19a4.87,4.87,0,0,1,0,9.73h-19v31.92C648.09,572.1,665.69,590.51,687.41,590.51Z"/><path class="cls-1" d="M795.35,525.27v22c0,40.17-26,74.1-61.32,84.38a13.09,13.09,0,0,1-12.81,12.65h-1.83v30.74c4.4.69,8.38,2.43,10.8,6.57,4.73,8.07,5.07,13.12,4.52,21.49-1.2,18.39-2.32,25-7.66,37-3.24,7.32-5.77,11.48-13.24,19-21.26,21.29-57.54,36.17-93.39,37.28-32.4,1-63.43-10.19-93-26.58s-58.35-43.28-86.24-80.61S389,607,368.24,554.69q-15.51-39.35-45.54-144.25-18-64-22.53-76.58l-12.34-1.05A114.34,114.34,0,0,0,275,333.86L207.59,612.39q24,3.66,38.51,3.67,22,0,54.54-7.88l-5,25.72q-33.58,7.3-52.11,7.34-19.51,0-57.62-3.67-33.56-3.71-55.62-3.67-40.06,0-92.67,12.05l7.51-29.38q55.12-14.66,71.67-28.85,25.08-22.53,38.61-79.19L225.52,215.3q13-56.09,13-66.08c0-6.3-2.11-11-6.26-14.17s-12.45-4.52-24.79-4.18L214,105.69q50.46-.51,120.91-19.38-6,19.95-15.56,58.74L281.7,299.76Q305.79,305,322.36,305q62.75,0,107.39-45.9t44.68-108.85q0-48.78-35.81-80.25T341.19,38.53q-78.65,0-153.8,39.89T74.69,177.3c-25,39.32-37.35,80.51-37.58,123.5-.21,40.46,1.25,44.74,19.75,91.82,18.42,33.07,14.89,28.2,18.42,33.07,4.85,6.75,10.34,19.78,6.13,26.07-5.24,7.89-16.09,13.18-26.45,10.1-17.45-5.17-18.91-12-31.4-40.94C10,389.6,2,356.93,2,315Q2,234.2,44.64,164.43T173.76,49Q260.31,3.39,356.07,3.39q89.26,0,146.94,35.14t57.68,103.88q0,64.5-52.85,120.11t-145.5,71.34q23,48.27,29.54,65,10.53,28.32,32.06,95.46,50.63,157.27,104.75,221.55,40.09,47,86.75,47,48,0,61.64-45.37c5.32-19.12,3.73-29.12,7.47-35.48,3.3-5.58,8.05-7,13.2-7.36v-30.4H695.9a13.07,13.07,0,0,1-12.79-12.65c-35.33-10.28-67-44.21-67-84.38v-22h14v22c0,32.76,26.37,60.52,54.84,69.71a12.73,12.73,0,0,1,11-6.49h25.32a12.75,12.75,0,0,1,11,6.49c28.45-9.19,49.17-37,49.17-69.71v-22Z"/><path class="cls-1" d="M687.41,589.12h37.53c21.72,0,39.33-18.41,39.33-41.13V516.07h-19a4.87,4.87,0,0,1,0-9.73h19V491.27h-19a4.87,4.87,0,0,1,0-9.73h19V466.47h-19a4.87,4.87,0,0,1,0-9.73h19V441.67h-19a4.87,4.87,0,0,1,0-9.73h19v-2.36c0-22.71-17.61-41.13-39.33-41.13H687.41c-21.72,0-39.32,18.42-39.32,41.13v2.36h19a4.87,4.87,0,0,1,0,9.73h-19v15.07h19a4.87,4.87,0,0,1,0,9.73h-19v15.07h19a4.87,4.87,0,0,1,0,9.73h-19v15.07h19a4.87,4.87,0,0,1,0,9.73h-19V548C648.09,570.71,665.69,589.12,687.41,589.12Z"/><path class="cls-1" d="M795.35,523.88v22c0,40.17-26,74.09-61.32,84.38a13.08,13.08,0,0,1-12.81,12.64h-1.83v30.75c4.4.69,8.38,2.43,10.8,6.57,4.73,8.07,5.07,13.12,4.52,21.49-1.2,18.39-2.32,25-7.66,37-3.24,7.32-5.77,11.48-13.24,19C692.55,779,656.27,793.88,620.42,795c-32.4,1-63.43-10.19-93-26.58s-58.35-43.28-86.24-80.61-52.22-82.17-73-134.5Q352.73,514,322.7,409.05q-18-64-22.53-76.58l-12.34-1.05A114.34,114.34,0,0,0,275,332.47L207.59,611q24,3.66,38.51,3.67,22,0,54.54-7.88l-5,25.72q-33.58,7.31-52.11,7.34-19.51,0-57.62-3.67-33.56-3.7-55.62-3.67-40.06,0-92.67,12l7.51-29.38q55.12-14.65,71.67-28.85,25.08-22.53,38.61-79.19l70.11-293.23q13-56.08,13-66.08c0-6.3-2.11-11-6.26-14.17s-12.45-4.52-24.79-4.19L214,104.3q50.46-.51,120.91-19.38-6,20-15.56,58.74L281.7,298.37q24.09,5.26,40.66,5.25,62.75,0,107.39-45.9t44.68-108.85q0-48.78-35.81-80.25T341.19,37.14q-78.65,0-153.8,39.88T74.69,175.91c-25,39.32-37.35,80.51-37.58,123.5-.21,40.46,1.25,44.74,19.75,91.82,18.42,33.07,14.89,28.2,18.42,33.07,4.85,6.75,10.34,19.78,6.13,26.07-5.24,7.89-16.09,13.18-26.45,10.1-17.45-5.17-18.91-12-31.4-40.94C10,388.21,2,355.53,2,313.58Q2,232.81,44.64,163T173.76,47.64Q260.31,2,356.07,2,445.34,2,503,37.14T560.69,141q0,64.5-52.85,120.11t-145.5,71.34q23,48.27,29.54,65,10.53,28.32,32.06,95.46,50.63,157.28,104.75,221.55,40.09,47,86.75,47,48,0,61.64-45.37c5.32-19.12,3.73-29.12,7.47-35.48,3.3-5.58,8.05-7,13.2-7.36V642.92H695.9a13.06,13.06,0,0,1-12.79-12.64c-35.33-10.29-67-44.21-67-84.38v-22h14v22c0,32.75,26.37,60.52,54.84,69.71a12.73,12.73,0,0,1,11-6.49h25.32a12.75,12.75,0,0,1,11,6.49c28.45-9.19,49.17-37,49.17-69.71v-22Z"/><path class="cls-1" d="M687.41,587.73h37.53c21.72,0,39.33-18.42,39.33-41.13V514.68h-19a4.87,4.87,0,0,1,0-9.73h19V489.88h-19a4.87,4.87,0,0,1,0-9.73h19V465.08h-19a4.87,4.87,0,0,1,0-9.73h19V440.28h-19a4.87,4.87,0,0,1,0-9.73h19v-2.36c0-22.71-17.61-41.13-39.33-41.13H687.41c-21.72,0-39.32,18.42-39.32,41.13v2.36h19a4.87,4.87,0,0,1,0,9.73h-19v15.07h19a4.87,4.87,0,0,1,0,9.73h-19v15.07h19a4.87,4.87,0,0,1,0,9.73h-19V505h19a4.87,4.87,0,0,1,0,9.73h-19V546.6C648.09,569.31,665.69,587.73,687.41,587.73Z"/><path class="cls-1" d="M796.68,523.88v22c0,40.17-26,74.09-61.32,84.38a13.08,13.08,0,0,1-12.81,12.64h-1.83v30.75c4.4.69,8.38,2.43,10.8,6.57,4.73,8.07,5.07,13.12,4.52,21.49-1.2,18.39-2.32,25-7.66,37-3.24,7.32-5.77,11.48-13.24,19C693.88,779,657.59,793.88,621.75,795c-32.4,1-63.43-10.19-93-26.58s-58.35-43.28-86.24-80.61-52.22-82.17-73-134.5Q354.06,514,324,409.05q-18-64-22.53-76.58l-12.34-1.05a114.34,114.34,0,0,0-12.83,1.05L208.92,611q24,3.66,38.51,3.67,22,0,54.54-7.88l-5,25.72q-33.59,7.31-52.11,7.34-19.52,0-57.62-3.67-33.56-3.7-55.62-3.67-40.07,0-92.67,12l7.51-29.38q55.12-14.65,71.67-28.85,25.08-22.53,38.61-79.19l70.11-293.23q13-56.08,13-66.08c0-6.3-2.11-11-6.26-14.17s-12.45-4.52-24.79-4.19l6.51-25.17q50.46-.51,120.91-19.38-6,20-15.56,58.74L283,298.37q24.09,5.26,40.66,5.25,62.74,0,107.39-45.9t44.68-108.85q0-48.78-35.81-80.25T342.52,37.14q-78.64,0-153.8,39.88T76,175.91c-25,39.32-37.35,80.51-37.58,123.5-.21,40.46,1.25,44.74,19.75,91.82,18.42,33.07,14.89,28.2,18.42,33.07,4.85,6.75,10.34,19.78,6.13,26.07-5.24,7.89-16.09,13.18-26.45,10.1-17.45-5.17-18.91-12-31.4-40.94-13.54-31.32-21.56-64-21.56-105.95Q3.33,232.81,46,163T175.09,47.64Q261.64,2,357.4,2q89.27,0,146.94,35.14T562,141q0,64.5-52.85,120.11t-145.5,71.34q23,48.27,29.54,65,10.53,28.32,32.06,95.46Q475.9,650.25,530,714.52q40.1,47,86.75,47,48,0,61.64-45.37c5.32-19.12,3.73-29.12,7.47-35.48,3.3-5.58,8-7,13.2-7.36V642.92h-1.85a13.06,13.06,0,0,1-12.79-12.64c-35.34-10.29-67-44.21-67-84.38v-22h14v22c0,32.75,26.37,60.52,54.84,69.71a12.73,12.73,0,0,1,11-6.49h25.32a12.75,12.75,0,0,1,11,6.49c28.45-9.19,49.17-37,49.17-69.71v-22Z"/><path class="cls-1" d="M688.74,587.73h37.53c21.72,0,39.33-18.42,39.33-41.13V514.68h-19a4.87,4.87,0,0,1,0-9.73h19V489.88h-19a4.87,4.87,0,0,1,0-9.73h19V465.08h-19a4.87,4.87,0,0,1,0-9.73h19V440.28h-19a4.87,4.87,0,0,1,0-9.73h19v-2.36c0-22.71-17.61-41.13-39.33-41.13H688.74c-21.72,0-39.32,18.42-39.32,41.13v2.36h19a4.87,4.87,0,0,1,0,9.73h-19v15.07h19a4.87,4.87,0,0,1,0,9.73h-19v15.07h19a4.87,4.87,0,0,1,0,9.73h-19V505h19a4.87,4.87,0,0,1,0,9.73h-19V546.6C649.42,569.31,667,587.73,688.74,587.73Z"/><path class="cls-1" d="M798,523.88v22c0,40.17-26,74.09-61.32,84.38a13.08,13.08,0,0,1-12.81,12.64h-1.83v30.75c4.4.69,8.38,2.43,10.8,6.57,4.73,8.07,5.07,13.12,4.52,21.49-1.2,18.39-2.32,25-7.66,37-3.24,7.32-5.77,11.48-13.24,19C695.21,779,658.92,793.88,623.08,795c-32.4,1-63.43-10.19-93-26.58s-58.35-43.28-86.24-80.61-52.22-82.17-73-134.5Q355.39,514,325.36,409.05q-18-64-22.53-76.58l-12.34-1.05a114.34,114.34,0,0,0-12.83,1.05L210.25,611q24,3.66,38.51,3.67,22,0,54.54-7.88l-5,25.72q-33.58,7.31-52.11,7.34-19.53,0-57.62-3.67Q155,632.48,133,632.51q-40.06,0-92.67,12l7.51-29.38q55.13-14.65,71.67-28.85,25.08-22.53,38.61-79.19l70.1-293.23q13-56.08,13-66.08c0-6.3-2.11-11-6.26-14.17s-12.45-4.52-24.79-4.19l6.51-25.17q50.46-.51,120.91-19.38-6,20-15.56,58.74L284.36,298.37q24.09,5.26,40.66,5.25,62.75,0,107.39-45.9t44.68-108.85q0-48.78-35.81-80.25T343.85,37.14q-78.64,0-153.8,39.88T77.35,175.91c-25,39.32-37.35,80.51-37.58,123.5-.21,40.46,1.25,44.74,19.75,91.82,18.42,33.07,14.89,28.2,18.42,33.07,4.85,6.75,10.34,19.78,6.13,26.07-5.25,7.89-16.09,13.18-26.45,10.1-17.45-5.17-18.91-12-31.4-40.94-13.54-31.32-21.56-64-21.56-105.95Q4.66,232.81,47.3,163T176.42,47.64Q263,2,358.73,2,448,2,505.67,37.14T563.35,141q0,64.5-52.85,120.11T365,332.47q23,48.27,29.54,65Q405.07,425.83,426.6,493q50.63,157.28,104.75,221.55,40.1,47,86.75,47,48,0,61.63-45.37c5.33-19.12,3.74-29.12,7.48-35.48,3.3-5.58,8-7,13.2-7.36V642.92h-1.85a13.06,13.06,0,0,1-12.79-12.64c-35.34-10.29-67-44.21-67-84.38v-22h14v22c0,32.75,26.37,60.52,54.84,69.71a12.73,12.73,0,0,1,11-6.49h25.32a12.75,12.75,0,0,1,11,6.49c28.45-9.19,49.17-37,49.17-69.71v-22Z"/><path class="cls-1" d="M690.07,587.73H727.6c21.72,0,39.33-18.42,39.33-41.13V514.68H748a4.87,4.87,0,0,1,0-9.73h19V489.88H748a4.87,4.87,0,0,1,0-9.73h19V465.08H748a4.87,4.87,0,0,1,0-9.73h19V440.28H748a4.87,4.87,0,0,1,0-9.73h19v-2.36c0-22.71-17.61-41.13-39.33-41.13H690.07c-21.72,0-39.32,18.42-39.32,41.13v2.36h19a4.87,4.87,0,0,1,0,9.73h-19v15.07h19a4.87,4.87,0,0,1,0,9.73h-19v15.07h19a4.87,4.87,0,0,1,0,9.73h-19V505h19a4.87,4.87,0,0,1,0,9.73h-19V546.6C650.75,569.31,668.35,587.73,690.07,587.73Z"/><path class="cls-1" d="M799.34,523.88v22c0,40.17-26,74.09-61.32,84.38a13.08,13.08,0,0,1-12.81,12.64h-1.83v30.75c4.4.69,8.38,2.43,10.79,6.57,4.74,8.07,5.08,13.12,4.53,21.49-1.2,18.39-2.32,25-7.66,37-3.24,7.32-5.77,11.48-13.24,19C696.54,779,660.25,793.88,624.41,795c-32.4,1-63.43-10.19-93-26.58s-58.35-43.28-86.24-80.61-52.22-82.17-73-134.5Q356.72,514,326.69,409.05q-18-64-22.53-76.58l-12.34-1.05A114.34,114.34,0,0,0,279,332.47L211.58,611q24,3.66,38.51,3.67,22,0,54.54-7.88l-5,25.72q-33.58,7.31-52.11,7.34-19.53,0-57.62-3.67-33.56-3.7-55.62-3.67-40.07,0-92.67,12l7.51-29.38q55.13-14.65,71.67-28.85,25.08-22.53,38.61-79.19l70.1-293.23q13-56.08,13-66.08c0-6.3-2.11-11-6.26-14.17s-12.45-4.52-24.79-4.19L218,104.3q50.46-.51,120.91-19.38-6,20-15.56,58.74L285.69,298.37q24.09,5.26,40.66,5.25,62.75,0,107.39-45.9t44.68-108.85q0-48.78-35.81-80.25T345.18,37.14q-78.65,0-153.81,39.88T78.68,175.91c-25.05,39.32-37.35,80.51-37.58,123.5-.21,40.46,1.25,44.74,19.75,91.82,18.42,33.07,14.89,28.2,18.42,33.07,4.85,6.75,10.34,19.78,6.13,26.07-5.25,7.89-16.09,13.18-26.45,10.1-17.45-5.17-18.91-12-31.4-40.94C14,388.21,6,355.53,6,313.58Q6,232.81,48.63,163T177.75,47.64Q264.3,2,360.06,2,449.33,2,507,37.14T564.67,141q0,64.5-52.84,120.11t-145.5,71.34q23,48.27,29.54,65Q406.4,425.83,427.93,493q50.63,157.28,104.75,221.55,40.1,47,86.75,47,48,0,61.63-45.37c5.32-19.12,3.74-29.12,7.48-35.48,3.3-5.58,8.05-7,13.2-7.36V642.92h-1.85a13.06,13.06,0,0,1-12.79-12.64c-35.34-10.29-67-44.21-67-84.38v-22h14v22c0,32.75,26.37,60.52,54.84,69.71a12.73,12.73,0,0,1,11-6.49h25.32a12.75,12.75,0,0,1,11,6.49c28.45-9.19,49.17-37,49.17-69.71v-22Z"/><path class="cls-1" d="M691.4,587.73h37.53c21.72,0,39.33-18.42,39.33-41.13V514.68h-19a4.87,4.87,0,0,1,0-9.73h19V489.88h-19a4.87,4.87,0,0,1,0-9.73h19V465.08h-19a4.87,4.87,0,0,1,0-9.73h19V440.28h-19a4.87,4.87,0,0,1,0-9.73h19v-2.36c0-22.71-17.61-41.13-39.33-41.13H691.4c-21.72,0-39.32,18.42-39.32,41.13v2.36h19a4.87,4.87,0,0,1,0,9.73h-19v15.07h19a4.87,4.87,0,0,1,0,9.73h-19v15.07h19a4.87,4.87,0,0,1,0,9.73h-19V505h19a4.87,4.87,0,0,1,0,9.73h-19V546.6C652.08,569.31,669.68,587.73,691.4,587.73Z"/><path class="cls-1" d="M800.67,523.88v22c0,40.17-26,74.09-61.32,84.38a13.08,13.08,0,0,1-12.81,12.64h-1.83v30.75c4.4.69,8.38,2.43,10.79,6.57,4.74,8.07,5.08,13.12,4.53,21.49-1.21,18.39-2.32,25-7.66,37-3.24,7.32-5.77,11.48-13.24,19C697.86,779,661.58,793.88,625.74,795c-32.4,1-63.43-10.19-93-26.58s-58.35-43.28-86.24-80.61-52.22-82.17-73-134.5Q358.05,514,328,409.05q-18-64-22.53-76.58l-12.34-1.05a114.34,114.34,0,0,0-12.83,1.05L212.91,611q24,3.66,38.51,3.67,22,0,54.54-7.88l-5,25.72q-33.58,7.31-52.11,7.34-19.53,0-57.62-3.67-33.55-3.7-55.62-3.67-40.07,0-92.67,12l7.51-29.38q55.13-14.65,71.67-28.85,25.08-22.53,38.6-79.19l70.11-293.23q13-56.08,13-66.08c0-6.3-2.11-11-6.26-14.17s-12.45-4.52-24.79-4.19l6.51-25.17q50.46-.51,120.91-19.38-6,20-15.56,58.74L287,298.37q24.09,5.26,40.66,5.25,62.74,0,107.39-45.9t44.67-108.85q0-48.78-35.8-80.25T346.51,37.14Q267.87,37.14,192.7,77T80,175.91C55,215.23,42.66,256.42,42.43,299.41c-.21,40.46,1.24,44.74,19.75,91.82C80.6,424.3,77.07,419.43,80.6,424.3c4.85,6.75,10.34,19.78,6.13,26.07-5.25,7.89-16.09,13.18-26.45,10.1-17.45-5.17-18.91-12-31.4-40.94-13.54-31.32-21.56-64-21.56-105.95Q7.32,232.81,50,163T179.08,47.64Q265.63,2,361.39,2q89.26,0,146.94,35.14T566,141q0,64.5-52.84,120.11t-145.5,71.34q23,48.27,29.54,65,10.53,28.32,32.06,95.46Q479.89,650.25,534,714.52q40.1,47,86.75,47,48,0,61.63-45.37c5.32-19.12,3.74-29.12,7.48-35.48,3.3-5.58,8-7,13.2-7.36V642.92h-1.85a13.06,13.06,0,0,1-12.79-12.64c-35.34-10.29-67-44.21-67-84.38v-22h14v22c0,32.75,26.37,60.52,54.84,69.71a12.73,12.73,0,0,1,11-6.49h25.32a12.75,12.75,0,0,1,11,6.49c28.45-9.19,49.17-37,49.17-69.71v-22Z"/><path class="cls-1" d="M692.73,587.73h37.53c21.72,0,39.33-18.42,39.33-41.13V514.68h-19a4.87,4.87,0,0,1,0-9.73h19V489.88h-19a4.87,4.87,0,0,1,0-9.73h19V465.08h-19a4.87,4.87,0,0,1,0-9.73h19V440.28h-19a4.87,4.87,0,0,1,0-9.73h19v-2.36c0-22.71-17.61-41.13-39.33-41.13H692.73c-21.72,0-39.33,18.42-39.33,41.13v2.36h19a4.87,4.87,0,0,1,0,9.73h-19v15.07h19a4.87,4.87,0,0,1,0,9.73h-19v15.07h19a4.87,4.87,0,0,1,0,9.73h-19V505h19a4.87,4.87,0,0,1,0,9.73h-19V546.6C653.4,569.31,671,587.73,692.73,587.73Z"/><path class="cls-1" d="M802,523.88v22c0,40.17-26,74.09-61.32,84.38a13.08,13.08,0,0,1-12.81,12.64H726v30.75c4.4.69,8.38,2.43,10.79,6.57,4.74,8.07,5.08,13.12,4.53,21.49-1.21,18.39-2.32,25-7.66,37-3.24,7.32-5.77,11.48-13.24,19C699.19,779,662.91,793.88,627.07,795c-32.4,1-63.43-10.19-93-26.58s-58.35-43.28-86.24-80.61-52.22-82.17-73-134.5Q359.38,514,329.35,409.05q-18-64-22.53-76.58l-12.34-1.05a114.34,114.34,0,0,0-12.83,1.05L214.24,611q24,3.66,38.51,3.67,22,0,54.54-7.88l-5,25.72q-33.59,7.31-52.11,7.34-19.53,0-57.62-3.67-33.56-3.7-55.62-3.67-40.06,0-92.67,12l7.51-29.38q55.13-14.65,71.67-28.85,25.08-22.53,38.6-79.19l70.11-293.23q13-56.08,13-66.08c0-6.3-2.11-11-6.26-14.17s-12.45-4.52-24.79-4.19l6.51-25.17q50.45-.51,120.91-19.38-6,20-15.56,58.74L288.35,298.37q24.09,5.26,40.66,5.25,62.75,0,107.39-45.9t44.67-108.85q0-48.78-35.8-80.25T347.84,37.14Q269.2,37.14,194,77T81.34,175.91C56.29,215.23,44,256.42,43.76,299.41c-.21,40.46,1.24,44.74,19.75,91.82,18.42,33.07,14.89,28.2,18.42,33.07,4.85,6.75,10.34,19.78,6.13,26.07-5.25,7.89-16.09,13.18-26.45,10.1-17.45-5.17-18.91-12-31.4-40.94-13.54-31.32-21.56-64-21.56-105.95q0-80.77,42.64-150.54T180.41,47.64Q267,2,362.72,2,452,2,509.66,37.14T567.33,141q0,64.5-52.84,120.11T369,332.47q23,48.27,29.54,65,10.53,28.32,32.06,95.46,50.63,157.28,104.75,221.55,40.1,47,86.75,47,48,0,61.63-45.37c5.32-19.12,3.74-29.12,7.47-35.48,3.31-5.58,8.06-7,13.21-7.36V642.92h-1.85a13.06,13.06,0,0,1-12.79-12.64c-35.34-10.29-67-44.21-67-84.38v-22h14v22c0,32.75,26.37,60.52,54.84,69.71a12.73,12.73,0,0,1,11-6.49h25.32a12.75,12.75,0,0,1,11,6.49c28.45-9.19,49.17-37,49.17-69.71v-22Z"/><path class="cls-1" d="M694.06,587.73h37.53c21.72,0,39.33-18.42,39.33-41.13V514.68H752a4.87,4.87,0,0,1,0-9.73h19V489.88H752a4.87,4.87,0,0,1,0-9.73h19V465.08H752a4.87,4.87,0,0,1,0-9.73h19V440.28H752a4.87,4.87,0,0,1,0-9.73h19v-2.36c0-22.71-17.61-41.13-39.33-41.13H694.06c-21.72,0-39.33,18.42-39.33,41.13v2.36h19a4.87,4.87,0,0,1,0,9.73h-19v15.07h19a4.87,4.87,0,0,1,0,9.73h-19v15.07h19a4.87,4.87,0,0,1,0,9.73h-19V505h19a4.87,4.87,0,0,1,0,9.73h-19V546.6C654.73,569.31,672.34,587.73,694.06,587.73Z"/></svg>